<svg xmlns="http://www.w3.org/2000/svg" xmlns:xlink="http://www.w3.org/1999/xlink" width="1080" zoomAndPan="magnify" viewBox="0 0 810 329.999987" height="440" preserveAspectRatio="xMidYMid meet" version="1.0"><defs><g/><clipPath id="cf47b9d80d"><path d="M 673.738281 227.796875 L 718.773438 227.796875 L 718.773438 272.828125 L 673.738281 272.828125 Z M 673.738281 227.796875 " clip-rule="nonzero"/></clipPath><clipPath id="2b0ab45e74"><path d="M 696.253906 227.796875 C 683.820312 227.796875 673.738281 237.875 673.738281 250.3125 C 673.738281 262.75 683.820312 272.828125 696.253906 272.828125 C 708.691406 272.828125 718.773438 262.75 718.773438 250.3125 C 718.773438 237.875 708.691406 227.796875 696.253906 227.796875 " clip-rule="nonzero"/></clipPath></defs><g clip-path="url(#cf47b9d80d)"><g clip-path="url(#2b0ab45e74)"><path fill="#ff3131" d="M 673.738281 227.796875 L 718.773438 227.796875 L 718.773438 272.828125 L 673.738281 272.828125 Z M 673.738281 227.796875 " fill-opacity="1" fill-rule="nonzero"/></g></g><g fill="#ff00ff" fill-opacity="1"><g transform="translate(565.192362, 196.996234)"><g><path d="M 106.4375 -29.625 C 106.4375 -24.820312 105.734375 -20.457031 104.328125 -16.53125 C 102.921875 -12.613281 100.410156 -9.269531 96.796875 -6.5 C 93.191406 -3.726562 88.226562 -1.5625 81.90625 0 C 75.582031 1.5625 67.5625 2.34375 57.84375 2.34375 C 48.125 2.34375 40.078125 1.5625 33.703125 0 C 27.328125 -1.5625 22.335938 -3.726562 18.734375 -6.5 C 15.128906 -9.269531 12.617188 -12.613281 11.203125 -16.53125 C 9.796875 -20.457031 9.09375 -24.820312 9.09375 -29.625 L 9.09375 -83.078125 C 9.09375 -87.890625 9.796875 -92.253906 11.203125 -96.171875 C 12.617188 -100.085938 15.128906 -103.457031 18.734375 -106.28125 C 22.335938 -109.101562 27.328125 -111.296875 33.703125 -112.859375 C 40.078125 -114.429688 48.125 -115.21875 57.84375 -115.21875 C 67.5625 -115.21875 75.582031 -114.429688 81.90625 -112.859375 C 88.226562 -111.296875 93.191406 -109.101562 96.796875 -106.28125 C 100.410156 -103.457031 102.921875 -100.085938 104.328125 -96.171875 C 105.734375 -92.253906 106.4375 -87.890625 106.4375 -83.078125 Z M 44.671875 -35.265625 C 44.671875 -33.179688 45.453125 -31.429688 47.015625 -30.015625 C 48.585938 -28.609375 52.195312 -27.90625 57.84375 -27.90625 C 63.488281 -27.90625 67.09375 -28.609375 68.65625 -30.015625 C 70.226562 -31.429688 71.015625 -33.179688 71.015625 -35.265625 L 71.015625 -77.4375 C 71.015625 -79.425781 70.226562 -81.125 68.65625 -82.53125 C 67.09375 -83.945312 63.488281 -84.65625 57.84375 -84.65625 C 52.195312 -84.65625 48.585938 -83.945312 47.015625 -82.53125 C 45.453125 -81.125 44.671875 -79.425781 44.671875 -77.4375 Z M 44.671875 -35.265625 "/></g></g></g><g fill="#ff00ff" fill-opacity="1"><g transform="translate(680.729647, 196.996234)"><g><path d="M 39.96875 0 L 16.453125 0 C 14.472656 0 13.035156 -0.441406 12.140625 -1.328125 C 11.253906 -2.222656 10.8125 -3.660156 10.8125 -5.640625 L 10.8125 -107.234375 C 10.8125 -109.210938 11.253906 -110.644531 12.140625 -111.53125 C 13.035156 -112.425781 14.472656 -112.875 16.453125 -112.875 L 32.765625 -112.875 C 34.753906 -112.875 36.453125 -112.554688 37.859375 -111.921875 C 39.265625 -111.296875 40.648438 -110.203125 42.015625 -108.640625 L 72.421875 -73.84375 L 72.421875 -107.234375 C 72.421875 -109.210938 72.863281 -110.644531 73.75 -111.53125 C 74.644531 -112.425781 76.082031 -112.875 78.0625 -112.875 L 101.578125 -112.875 C 103.566406 -112.875 105.003906 -112.425781 105.890625 -111.53125 C 106.785156 -110.644531 107.234375 -109.210938 107.234375 -107.234375 L 107.234375 -5.640625 C 107.234375 -3.660156 106.785156 -2.222656 105.890625 -1.328125 C 105.003906 -0.441406 103.566406 0 101.578125 0 L 78.0625 0 C 76.082031 0 74.644531 -0.441406 73.75 -1.328125 C 72.863281 -2.222656 72.421875 -3.660156 72.421875 -5.640625 L 72.421875 -24.921875 L 45.625 -57.375 L 45.625 -5.640625 C 45.625 -3.660156 45.175781 -2.222656 44.28125 -1.328125 C 43.394531 -0.441406 41.957031 0 39.96875 0 Z M 39.96875 0 "/></g></g></g><g fill="#00ffff" fill-opacity="1"><g transform="translate(573.361385, 189.378548)"><g><path d="M 106.4375 -29.625 C 106.4375 -24.820312 105.734375 -20.457031 104.328125 -16.53125 C 102.921875 -12.613281 100.410156 -9.269531 96.796875 -6.5 C 93.191406 -3.726562 88.226562 -1.5625 81.90625 0 C 75.582031 1.5625 67.5625 2.34375 57.84375 2.34375 C 48.125 2.34375 40.078125 1.5625 33.703125 0 C 27.328125 -1.5625 22.335938 -3.726562 18.734375 -6.5 C 15.128906 -9.269531 12.617188 -12.613281 11.203125 -16.53125 C 9.796875 -20.457031 9.09375 -24.820312 9.09375 -29.625 L 9.09375 -83.078125 C 9.09375 -87.890625 9.796875 -92.253906 11.203125 -96.171875 C 12.617188 -100.085938 15.128906 -103.457031 18.734375 -106.28125 C 22.335938 -109.101562 27.328125 -111.296875 33.703125 -112.859375 C 40.078125 -114.429688 48.125 -115.21875 57.84375 -115.21875 C 67.5625 -115.21875 75.582031 -114.429688 81.90625 -112.859375 C 88.226562 -111.296875 93.191406 -109.101562 96.796875 -106.28125 C 100.410156 -103.457031 102.921875 -100.085938 104.328125 -96.171875 C 105.734375 -92.253906 106.4375 -87.890625 106.4375 -83.078125 Z M 44.671875 -35.265625 C 44.671875 -33.179688 45.453125 -31.429688 47.015625 -30.015625 C 48.585938 -28.609375 52.195312 -27.90625 57.84375 -27.90625 C 63.488281 -27.90625 67.09375 -28.609375 68.65625 -30.015625 C 70.226562 -31.429688 71.015625 -33.179688 71.015625 -35.265625 L 71.015625 -77.4375 C 71.015625 -79.425781 70.226562 -81.125 68.65625 -82.53125 C 67.09375 -83.945312 63.488281 -84.65625 57.84375 -84.65625 C 52.195312 -84.65625 48.585938 -83.945312 47.015625 -82.53125 C 45.453125 -81.125 44.671875 -79.425781 44.671875 -77.4375 Z M 44.671875 -35.265625 "/></g></g></g><g fill="#00ffff" fill-opacity="1"><g transform="translate(688.898671, 189.378548)"><g><path d="M 39.96875 0 L 16.453125 0 C 14.472656 0 13.035156 -0.441406 12.140625 -1.328125 C 11.253906 -2.222656 10.8125 -3.660156 10.8125 -5.640625 L 10.8125 -107.234375 C 10.8125 -109.210938 11.253906 -110.644531 12.140625 -111.53125 C 13.035156 -112.425781 14.472656 -112.875 16.453125 -112.875 L 32.765625 -112.875 C 34.753906 -112.875 36.453125 -112.554688 37.859375 -111.921875 C 39.265625 -111.296875 40.648438 -110.203125 42.015625 -108.640625 L 72.421875 -73.84375 L 72.421875 -107.234375 C 72.421875 -109.210938 72.863281 -110.644531 73.75 -111.53125 C 74.644531 -112.425781 76.082031 -112.875 78.0625 -112.875 L 101.578125 -112.875 C 103.566406 -112.875 105.003906 -112.425781 105.890625 -111.53125 C 106.785156 -110.644531 107.234375 -109.210938 107.234375 -107.234375 L 107.234375 -5.640625 C 107.234375 -3.660156 106.785156 -2.222656 105.890625 -1.328125 C 105.003906 -0.441406 103.566406 0 101.578125 0 L 78.0625 0 C 76.082031 0 74.644531 -0.441406 73.75 -1.328125 C 72.863281 -2.222656 72.421875 -3.660156 72.421875 -5.640625 L 72.421875 -24.921875 L 45.625 -57.375 L 45.625 -5.640625 C 45.625 -3.660156 45.175781 -2.222656 44.28125 -1.328125 C 43.394531 -0.441406 41.957031 0 39.96875 0 Z M 39.96875 0 "/></g></g></g><g fill="#7843e6" fill-opacity="1"><g transform="translate(569.276874, 193.187391)"><g><path d="M 106.4375 -29.625 C 106.4375 -24.820312 105.734375 -20.457031 104.328125 -16.53125 C 102.921875 -12.613281 100.410156 -9.269531 96.796875 -6.5 C 93.191406 -3.726562 88.226562 -1.5625 81.90625 0 C 75.582031 1.5625 67.5625 2.34375 57.84375 2.34375 C 48.125 2.34375 40.078125 1.5625 33.703125 0 C 27.328125 -1.5625 22.335938 -3.726562 18.734375 -6.5 C 15.128906 -9.269531 12.617188 -12.613281 11.203125 -16.53125 C 9.796875 -20.457031 9.09375 -24.820312 9.09375 -29.625 L 9.09375 -83.078125 C 9.09375 -87.890625 9.796875 -92.253906 11.203125 -96.171875 C 12.617188 -100.085938 15.128906 -103.457031 18.734375 -106.28125 C 22.335938 -109.101562 27.328125 -111.296875 33.703125 -112.859375 C 40.078125 -114.429688 48.125 -115.21875 57.84375 -115.21875 C 67.5625 -115.21875 75.582031 -114.429688 81.90625 -112.859375 C 88.226562 -111.296875 93.191406 -109.101562 96.796875 -106.28125 C 100.410156 -103.457031 102.921875 -100.085938 104.328125 -96.171875 C 105.734375 -92.253906 106.4375 -87.890625 106.4375 -83.078125 Z M 44.671875 -35.265625 C 44.671875 -33.179688 45.453125 -31.429688 47.015625 -30.015625 C 48.585938 -28.609375 52.195312 -27.90625 57.84375 -27.90625 C 63.488281 -27.90625 67.09375 -28.609375 68.65625 -30.015625 C 70.226562 -31.429688 71.015625 -33.179688 71.015625 -35.265625 L 71.015625 -77.4375 C 71.015625 -79.425781 70.226562 -81.125 68.65625 -82.53125 C 67.09375 -83.945312 63.488281 -84.65625 57.84375 -84.65625 C 52.195312 -84.65625 48.585938 -83.945312 47.015625 -82.53125 C 45.453125 -81.125 44.671875 -79.425781 44.671875 -77.4375 Z M 44.671875 -35.265625 "/></g></g></g><g fill="#7843e6" fill-opacity="1"><g transform="translate(684.814159, 193.187391)"><g><path d="M 39.96875 0 L 16.453125 0 C 14.472656 0 13.035156 -0.441406 12.140625 -1.328125 C 11.253906 -2.222656 10.8125 -3.660156 10.8125 -5.640625 L 10.8125 -107.234375 C 10.8125 -109.210938 11.253906 -110.644531 12.140625 -111.53125 C 13.035156 -112.425781 14.472656 -112.875 16.453125 -112.875 L 32.765625 -112.875 C 34.753906 -112.875 36.453125 -112.554688 37.859375 -111.921875 C 39.265625 -111.296875 40.648438 -110.203125 42.015625 -108.640625 L 72.421875 -73.84375 L 72.421875 -107.234375 C 72.421875 -109.210938 72.863281 -110.644531 73.75 -111.53125 C 74.644531 -112.425781 76.082031 -112.875 78.0625 -112.875 L 101.578125 -112.875 C 103.566406 -112.875 105.003906 -112.425781 105.890625 -111.53125 C 106.785156 -110.644531 107.234375 -109.210938 107.234375 -107.234375 L 107.234375 -5.640625 C 107.234375 -3.660156 106.785156 -2.222656 105.890625 -1.328125 C 105.003906 -0.441406 103.566406 0 101.578125 0 L 78.0625 0 C 76.082031 0 74.644531 -0.441406 73.75 -1.328125 C 72.863281 -2.222656 72.421875 -3.660156 72.421875 -5.640625 L 72.421875 -24.921875 L 45.625 -57.375 L 45.625 -5.640625 C 45.625 -3.660156 45.175781 -2.222656 44.28125 -1.328125 C 43.394531 -0.441406 41.957031 0 39.96875 0 Z M 39.96875 0 "/></g></g></g><g fill="#ff8d55" fill-opacity="0.4"><g transform="translate(7.784258, 199.660101)"><g><path d="M 95.304688 -32.398438 C 89.203125 -25.277344 80.195312 -20.921875 69.589844 -20.921875 C 49.105469 -20.921875 34.578125 -37.628906 34.578125 -58.113281 C 34.578125 -78.597656 49.105469 -95.304688 69.589844 -95.304688 C 80.195312 -95.304688 89.203125 -90.945312 95.304688 -83.828125 L 111.71875 -100.097656 C 100.96875 -110.847656 86.003906 -117.53125 69.589844 -117.53125 C 36.753906 -117.53125 10.167969 -90.945312 10.167969 -58.113281 C 10.167969 -25.277344 36.753906 1.308594 69.589844 1.308594 C 86.003906 1.308594 100.96875 -5.375 111.71875 -16.125 Z M 95.304688 -32.398438 "/></g></g></g><g fill="#ff8d55" fill-opacity="0.4"><g transform="translate(129.664161, 199.660101)"><g><path d="M 31.816406 -21.648438 L 31.816406 -116.222656 L 10.167969 -116.222656 L 10.167969 0 L 77.433594 0 L 77.433594 -21.648438 Z M 31.816406 -21.648438 "/></g></g></g><g fill="#ff8d55" fill-opacity="0.4"><g transform="translate(217.260812, 199.660101)"><g><path d="M 78.742188 0 L 101.40625 0 L 67.265625 -115.933594 L 67.265625 -116.222656 L 44.457031 -116.222656 L 10.167969 0 L 32.976562 0 L 41.550781 -28.910156 L 70.171875 -28.910156 Z M 47.941406 -50.558594 L 55.933594 -77.578125 L 63.777344 -50.558594 Z M 47.941406 -50.558594 "/></g></g></g><g fill="#ff8d55" fill-opacity="0.4"><g transform="translate(328.826686, 199.660101)"><g><path d="M 58.402344 1.453125 L 61.015625 1.453125 C 86.003906 1.308594 100.242188 -14.964844 101.257812 -31.089844 C 102.421875 -47.941406 89.636719 -66.828125 58.839844 -70.75 L 58.546875 -70.75 C 47.359375 -72.058594 35.738281 -77.578125 36.320312 -85.714844 C 36.753906 -91.527344 45.472656 -96.902344 61.308594 -96.175781 L 61.742188 -96.175781 C 70.460938 -96.175781 80.921875 -91.960938 86.296875 -88.039062 L 98.789062 -105.472656 C 90.507812 -111.429688 75.980469 -117.53125 62.035156 -117.53125 C 31.234375 -119.128906 16.269531 -103.4375 14.964844 -87.457031 C 14.238281 -78.160156 18.160156 -69.007812 25.714844 -62.035156 C 33.125 -55.207031 43.730469 -50.847656 56.222656 -49.539062 C 73.222656 -47.214844 80.339844 -39.371094 79.902344 -32.542969 C 79.46875 -26.296875 72.785156 -20.046875 60.726562 -20.046875 L 60 -20.046875 C 59.855469 -20.046875 44.019531 -19.175781 34.285156 -27.167969 C 31.816406 -29.054688 29.78125 -31.378906 27.894531 -34.140625 L 10.167969 -22.082031 C 13.074219 -17.722656 16.707031 -13.800781 20.773438 -10.460938 C 33.996094 0.289062 51.429688 1.453125 58.402344 1.453125 Z M 58.402344 1.453125 "/></g></g></g><g fill="#ff8d55" fill-opacity="0.4"><g transform="translate(440.247319, 199.660101)"><g><path d="M 58.402344 1.453125 L 61.015625 1.453125 C 86.003906 1.308594 100.242188 -14.964844 101.257812 -31.089844 C 102.421875 -47.941406 89.636719 -66.828125 58.839844 -70.75 L 58.546875 -70.75 C 47.359375 -72.058594 35.738281 -77.578125 36.320312 -85.714844 C 36.753906 -91.527344 45.472656 -96.902344 61.308594 -96.175781 L 61.742188 -96.175781 C 70.460938 -96.175781 80.921875 -91.960938 86.296875 -88.039062 L 98.789062 -105.472656 C 90.507812 -111.429688 75.980469 -117.53125 62.035156 -117.53125 C 31.234375 -119.128906 16.269531 -103.4375 14.964844 -87.457031 C 14.238281 -78.160156 18.160156 -69.007812 25.714844 -62.035156 C 33.125 -55.207031 43.730469 -50.847656 56.222656 -49.539062 C 73.222656 -47.214844 80.339844 -39.371094 79.902344 -32.542969 C 79.46875 -26.296875 72.785156 -20.046875 60.726562 -20.046875 L 60 -20.046875 C 59.855469 -20.046875 44.019531 -19.175781 34.285156 -27.167969 C 31.816406 -29.054688 29.78125 -31.378906 27.894531 -34.140625 L 10.167969 -22.082031 C 13.074219 -17.722656 16.707031 -13.800781 20.773438 -10.460938 C 33.996094 0.289062 51.429688 1.453125 58.402344 1.453125 Z M 58.402344 1.453125 "/></g></g></g><g fill="#5271ff" fill-opacity="1"><g transform="translate(16.26144, 196.406019)"><g><path d="M 95.304688 -32.398438 C 89.203125 -25.277344 80.195312 -20.921875 69.589844 -20.921875 C 49.105469 -20.921875 34.578125 -37.628906 34.578125 -58.113281 C 34.578125 -78.597656 49.105469 -95.304688 69.589844 -95.304688 C 80.195312 -95.304688 89.203125 -90.945312 95.304688 -83.828125 L 111.71875 -100.097656 C 100.96875 -110.847656 86.003906 -117.53125 69.589844 -117.53125 C 36.753906 -117.53125 10.167969 -90.945312 10.167969 -58.113281 C 10.167969 -25.277344 36.753906 1.308594 69.589844 1.308594 C 86.003906 1.308594 100.96875 -5.375 111.71875 -16.125 Z M 95.304688 -32.398438 "/></g></g></g><g fill="#5271ff" fill-opacity="1"><g transform="translate(138.141342, 196.406019)"><g><path d="M 31.816406 -21.648438 L 31.816406 -116.222656 L 10.167969 -116.222656 L 10.167969 0 L 77.433594 0 L 77.433594 -21.648438 Z M 31.816406 -21.648438 "/></g></g></g><g fill="#5271ff" fill-opacity="1"><g transform="translate(225.737994, 196.406019)"><g><path d="M 78.742188 0 L 101.40625 0 L 67.265625 -115.933594 L 67.265625 -116.222656 L 44.457031 -116.222656 L 10.167969 0 L 32.976562 0 L 41.550781 -28.910156 L 70.171875 -28.910156 Z M 47.941406 -50.558594 L 55.933594 -77.578125 L 63.777344 -50.558594 Z M 47.941406 -50.558594 "/></g></g></g><g fill="#5271ff" fill-opacity="1"><g transform="translate(337.303868, 196.406019)"><g><path d="M 58.402344 1.453125 L 61.015625 1.453125 C 86.003906 1.308594 100.242188 -14.964844 101.257812 -31.089844 C 102.421875 -47.941406 89.636719 -66.828125 58.839844 -70.75 L 58.546875 -70.75 C 47.359375 -72.058594 35.738281 -77.578125 36.320312 -85.714844 C 36.753906 -91.527344 45.472656 -96.902344 61.308594 -96.175781 L 61.742188 -96.175781 C 70.460938 -96.175781 80.921875 -91.960938 86.296875 -88.039062 L 98.789062 -105.472656 C 90.507812 -111.429688 75.980469 -117.53125 62.035156 -117.53125 C 31.234375 -119.128906 16.269531 -103.4375 14.964844 -87.457031 C 14.238281 -78.160156 18.160156 -69.007812 25.714844 -62.035156 C 33.125 -55.207031 43.730469 -50.847656 56.222656 -49.539062 C 73.222656 -47.214844 80.339844 -39.371094 79.902344 -32.542969 C 79.46875 -26.296875 72.785156 -20.046875 60.726562 -20.046875 L 60 -20.046875 C 59.855469 -20.046875 44.019531 -19.175781 34.285156 -27.167969 C 31.816406 -29.054688 29.78125 -31.378906 27.894531 -34.140625 L 10.167969 -22.082031 C 13.074219 -17.722656 16.707031 -13.800781 20.773438 -10.460938 C 33.996094 0.289062 51.429688 1.453125 58.402344 1.453125 Z M 58.402344 1.453125 "/></g></g></g><g fill="#5271ff" fill-opacity="1"><g transform="translate(448.724501, 196.406019)"><g><path d="M 58.402344 1.453125 L 61.015625 1.453125 C 86.003906 1.308594 100.242188 -14.964844 101.257812 -31.089844 C 102.421875 -47.941406 89.636719 -66.828125 58.839844 -70.75 L 58.546875 -70.75 C 47.359375 -72.058594 35.738281 -77.578125 36.320312 -85.714844 C 36.753906 -91.527344 45.472656 -96.902344 61.308594 -96.175781 L 61.742188 -96.175781 C 70.460938 -96.175781 80.921875 -91.960938 86.296875 -88.039062 L 98.789062 -105.472656 C 90.507812 -111.429688 75.980469 -117.53125 62.035156 -117.53125 C 31.234375 -119.128906 16.269531 -103.4375 14.964844 -87.457031 C 14.238281 -78.160156 18.160156 -69.007812 25.714844 -62.035156 C 33.125 -55.207031 43.730469 -50.847656 56.222656 -49.539062 C 73.222656 -47.214844 80.339844 -39.371094 79.902344 -32.542969 C 79.46875 -26.296875 72.785156 -20.046875 60.726562 -20.046875 L 60 -20.046875 C 59.855469 -20.046875 44.019531 -19.175781 34.285156 -27.167969 C 31.816406 -29.054688 29.78125 -31.378906 27.894531 -34.140625 L 10.167969 -22.082031 C 13.074219 -17.722656 16.707031 -13.800781 20.773438 -10.460938 C 33.996094 0.289062 51.429688 1.453125 58.402344 1.453125 Z M 58.402344 1.453125 "/></g></g></g><g fill="#000000" fill-opacity="1"><g transform="translate(21.687612, 267.360753)"><g><path d="M 10 -17.546875 L 10 -3.609375 L 28.96875 -3.609375 L 28.96875 0 L 5.625 0 L 5.625 -37.21875 L 28.5625 -37.21875 L 28.5625 -33.609375 L 10 -33.609375 L 10 -21.15625 L 26.375 -21.15625 L 26.375 -17.546875 Z M 10 -17.546875 "/></g></g></g><g fill="#000000" fill-opacity="1"><g transform="translate(56.782734, 267.360753)"><g><path d="M 17.765625 0 L 12.0625 0 L 1.375 -28.078125 L 5.859375 -28.078125 L 14.6875 -4.734375 L 15.28125 -4.734375 L 24.03125 -28.078125 L 28.40625 -28.078125 Z M 17.765625 0 "/></g></g></g><g fill="#000000" fill-opacity="1"><g transform="translate(90.197428, 267.360753)"><g><path d="M 26.75 -13.09375 L 7.453125 -13.09375 C 7.578125 -9.675781 8.394531 -7.171875 9.90625 -5.578125 C 11.425781 -3.984375 13.515625 -3.1875 16.171875 -3.1875 C 18.171875 -3.1875 19.78125 -3.539062 21 -4.25 C 22.226562 -4.96875 23.1875 -6.085938 23.875 -7.609375 L 24.421875 -7.609375 L 27.109375 -6.015625 C 26.296875 -3.972656 24.992188 -2.367188 23.203125 -1.203125 C 21.410156 -0.046875 19.066406 0.53125 16.171875 0.53125 C 13.453125 0.53125 11.113281 0 9.15625 -1.0625 C 7.207031 -2.132812 5.707031 -3.753906 4.65625 -5.921875 C 3.601562 -8.097656 3.078125 -10.800781 3.078125 -14.03125 C 3.078125 -17.21875 3.632812 -19.90625 4.75 -22.09375 C 5.863281 -24.289062 7.378906 -25.925781 9.296875 -27 C 11.222656 -28.070312 13.425781 -28.609375 15.90625 -28.609375 C 19.507812 -28.609375 22.320312 -27.59375 24.34375 -25.5625 C 26.363281 -23.539062 27.378906 -20.535156 27.390625 -16.546875 C 27.390625 -14.984375 27.359375 -13.929688 27.296875 -13.390625 Z M 23.296875 -16.546875 C 23.222656 -19.535156 22.554688 -21.707031 21.296875 -23.0625 C 20.046875 -24.425781 18.25 -25.109375 15.90625 -25.109375 C 13.445312 -25.109375 11.515625 -24.421875 10.109375 -23.046875 C 8.710938 -21.679688 7.863281 -19.515625 7.5625 -16.546875 Z M 23.296875 -16.546875 "/></g></g></g><g fill="#000000" fill-opacity="1"><g transform="translate(123.790346, 267.360753)"><g><path d="M 4.890625 0 L 4.890625 -28.078125 L 8.828125 -28.078125 L 8.828125 -23.671875 L 9.375 -23.546875 C 10.675781 -26.742188 13.132812 -28.34375 16.75 -28.34375 C 18.664062 -28.34375 20.101562 -27.992188 21.0625 -27.296875 L 19.984375 -23.78125 L 19.46875 -23.671875 C 18.414062 -24.203125 17.265625 -24.46875 16.015625 -24.46875 C 13.773438 -24.46875 12.050781 -23.625 10.84375 -21.9375 C 9.632812 -20.257812 9.03125 -17.539062 9.03125 -13.78125 L 9.03125 0 Z M 4.890625 0 "/></g></g></g><g fill="#000000" fill-opacity="1"><g transform="translate(149.133896, 267.360753)"><g><path d="M 5.625 11.921875 C 4.675781 11.921875 3.789062 11.835938 2.96875 11.671875 C 2.144531 11.515625 1.4375 11.289062 0.84375 11 L 1.609375 7.71875 L 2.0625 7.5625 C 2.46875 7.757812 2.972656 7.929688 3.578125 8.078125 C 4.191406 8.222656 4.820312 8.296875 5.46875 8.296875 C 6.601562 8.296875 7.546875 8.144531 8.296875 7.84375 C 9.046875 7.539062 9.6875 7.035156 10.21875 6.328125 C 10.757812 5.617188 11.257812 4.644531 11.71875 3.40625 L 12.703125 0.65625 L 1.421875 -28.078125 L 5.90625 -28.078125 L 14.734375 -5.171875 L 15.21875 -5.171875 L 23.78125 -28.078125 L 28.03125 -28.078125 L 15.484375 4.40625 C 14.765625 6.207031 13.960938 7.65625 13.078125 8.75 C 12.203125 9.84375 11.160156 10.644531 9.953125 11.15625 C 8.742188 11.664062 7.300781 11.921875 5.625 11.921875 Z M 5.625 11.921875 "/></g></g></g><g fill="#000000" fill-opacity="1"><g transform="translate(182.395827, 267.360753)"><g><path d="M 19 -4.453125 L 20.3125 -1.484375 C 19.65625 -0.816406 18.785156 -0.316406 17.703125 0.015625 C 16.628906 0.359375 15.460938 0.53125 14.203125 0.53125 C 8.835938 0.53125 6.15625 -2.179688 6.15625 -7.609375 L 6.15625 -24.703125 L 1.265625 -24.703125 L 1.265625 -28.109375 L 6.15625 -28.109375 L 6.15625 -34.046875 L 10.3125 -34.71875 L 10.3125 -28.109375 L 19.34375 -28.109375 L 19.34375 -24.703125 L 10.3125 -24.703125 L 10.3125 -8.015625 C 10.3125 -4.796875 11.710938 -3.1875 14.515625 -3.1875 C 16.035156 -3.1875 17.347656 -3.609375 18.453125 -4.453125 Z M 19 -4.453125 "/></g></g></g><g fill="#000000" fill-opacity="1"><g transform="translate(207.433845, 267.360753)"><g><path d="M 4.890625 0 L 4.890625 -39.359375 L 9.03125 -39.359375 L 9.03125 -24.078125 L 9.578125 -23.984375 C 11.578125 -27.066406 14.46875 -28.609375 18.25 -28.609375 C 21.632812 -28.609375 24.082031 -27.75 25.59375 -26.03125 C 27.113281 -24.3125 27.875 -21.660156 27.875 -18.078125 L 27.875 0 L 23.734375 0 L 23.734375 -17.96875 C 23.734375 -19.664062 23.515625 -21.023438 23.078125 -22.046875 C 22.640625 -23.078125 21.96875 -23.828125 21.0625 -24.296875 C 20.15625 -24.765625 18.960938 -25 17.484375 -25 C 14.941406 -25 12.894531 -24.175781 11.34375 -22.53125 C 9.800781 -20.882812 9.03125 -18.175781 9.03125 -14.40625 L 9.03125 0 Z M 4.890625 0 "/></g></g></g><g fill="#000000" fill-opacity="1"><g transform="translate(243.420106, 267.360753)"><g><path d="M 6.96875 -33.5 C 6.09375 -33.5 5.378906 -33.773438 4.828125 -34.328125 C 4.273438 -34.878906 4 -35.582031 4 -36.4375 C 4 -37.28125 4.273438 -37.976562 4.828125 -38.53125 C 5.378906 -39.082031 6.09375 -39.359375 6.96875 -39.359375 C 7.851562 -39.359375 8.570312 -39.082031 9.125 -38.53125 C 9.675781 -37.976562 9.953125 -37.28125 9.953125 -36.4375 C 9.953125 -35.582031 9.675781 -34.878906 9.125 -34.328125 C 8.570312 -33.773438 7.851562 -33.5 6.96875 -33.5 Z M 4.890625 0 L 4.890625 -28.078125 L 9.03125 -28.078125 L 9.03125 0 Z M 4.890625 0 "/></g></g></g><g fill="#000000" fill-opacity="1"><g transform="translate(260.998027, 267.360753)"><g><path d="M 4.890625 0 L 4.890625 -28.078125 L 8.828125 -28.078125 L 8.828125 -23.671875 L 9.375 -23.546875 C 10.300781 -25.191406 11.488281 -26.445312 12.9375 -27.3125 C 14.394531 -28.175781 16.164062 -28.609375 18.25 -28.609375 C 21.632812 -28.609375 24.082031 -27.75 25.59375 -26.03125 C 27.113281 -24.3125 27.875 -21.660156 27.875 -18.078125 L 27.875 0 L 23.734375 0 L 23.734375 -17.96875 C 23.734375 -19.664062 23.515625 -21.023438 23.078125 -22.046875 C 22.640625 -23.078125 21.96875 -23.828125 21.0625 -24.296875 C 20.15625 -24.765625 18.960938 -25 17.484375 -25 C 14.960938 -25 12.921875 -24.160156 11.359375 -22.484375 C 9.804688 -20.816406 9.03125 -18.125 9.03125 -14.40625 L 9.03125 0 Z M 4.890625 0 "/></g></g></g><g fill="#000000" fill-opacity="1"><g transform="translate(296.984276, 267.360753)"><g><path d="M 14.453125 11.921875 C 10.023438 11.921875 6.789062 11.179688 4.75 9.703125 C 2.71875 8.222656 1.703125 6.257812 1.703125 3.8125 C 1.703125 2.238281 2.175781 0.984375 3.125 0.046875 C 4.082031 -0.878906 5.46875 -1.546875 7.28125 -1.953125 L 7.28125 -2.5 C 6.414062 -2.988281 5.765625 -3.5625 5.328125 -4.21875 C 4.898438 -4.882812 4.6875 -5.675781 4.6875 -6.59375 C 4.6875 -7.675781 5.03125 -8.554688 5.71875 -9.234375 C 6.40625 -9.921875 7.425781 -10.441406 8.78125 -10.796875 L 8.78125 -11.328125 C 5.726562 -12.941406 4.203125 -15.566406 4.203125 -19.203125 C 4.203125 -21.035156 4.617188 -22.660156 5.453125 -24.078125 C 6.285156 -25.503906 7.472656 -26.613281 9.015625 -27.40625 C 10.554688 -28.207031 12.351562 -28.609375 14.40625 -28.609375 C 16.769531 -28.609375 18.738281 -28.09375 20.3125 -27.0625 C 20.90625 -27.726562 21.347656 -28.4375 21.640625 -29.1875 C 21.941406 -29.945312 22.132812 -30.800781 22.21875 -31.75 L 22.765625 -32.078125 L 26.171875 -31.265625 C 26.003906 -29.835938 25.578125 -28.628906 24.890625 -27.640625 C 24.203125 -26.660156 23.226562 -25.847656 21.96875 -25.203125 L 21.96875 -24.671875 C 22.875 -23.953125 23.539062 -23.113281 23.96875 -22.15625 C 24.40625 -21.195312 24.625 -20.082031 24.625 -18.8125 C 24.625 -17.050781 24.195312 -15.460938 23.34375 -14.046875 C 22.5 -12.640625 21.300781 -11.53125 19.75 -10.71875 C 18.207031 -9.914062 16.425781 -9.515625 14.40625 -9.515625 C 14.164062 -9.515625 13.742188 -9.535156 13.140625 -9.578125 C 12.460938 -9.609375 11.960938 -9.625 11.640625 -9.625 C 10.753906 -9.625 10.046875 -9.394531 9.515625 -8.9375 C 8.992188 -8.476562 8.734375 -7.890625 8.734375 -7.171875 C 8.734375 -6.296875 9.015625 -5.648438 9.578125 -5.234375 C 10.148438 -4.816406 11.09375 -4.582031 12.40625 -4.53125 L 19.046875 -4.296875 C 21.910156 -4.203125 24.035156 -3.535156 25.421875 -2.296875 C 26.804688 -1.066406 27.5 0.671875 27.5 2.921875 C 27.5 4.609375 27.046875 6.125 26.140625 7.46875 C 25.242188 8.820312 23.816406 9.898438 21.859375 10.703125 C 19.910156 11.515625 17.441406 11.921875 14.453125 11.921875 Z M 14.40625 -13.09375 C 16.394531 -13.09375 17.929688 -13.609375 19.015625 -14.640625 C 20.097656 -15.671875 20.640625 -17.125 20.640625 -19 C 20.640625 -20.925781 20.101562 -22.414062 19.03125 -23.46875 C 17.957031 -24.519531 16.414062 -25.046875 14.40625 -25.046875 C 12.40625 -25.046875 10.878906 -24.523438 9.828125 -23.484375 C 8.773438 -22.441406 8.25 -20.945312 8.25 -19 C 8.25 -17.113281 8.773438 -15.65625 9.828125 -14.625 C 10.878906 -13.601562 12.40625 -13.09375 14.40625 -13.09375 Z M 14.453125 8.34375 C 16.523438 8.34375 18.21875 8.113281 19.53125 7.65625 C 20.851562 7.195312 21.800781 6.585938 22.375 5.828125 C 22.957031 5.078125 23.25 4.238281 23.25 3.3125 C 23.25 2.476562 23.085938 1.804688 22.765625 1.296875 C 22.453125 0.785156 21.945312 0.398438 21.25 0.140625 C 20.5625 -0.109375 19.613281 -0.265625 18.40625 -0.328125 L 12.125 -0.640625 L 11.234375 -0.640625 C 7.710938 -0.585938 5.953125 0.78125 5.953125 3.46875 C 5.953125 6.71875 8.785156 8.34375 14.453125 8.34375 Z M 14.453125 8.34375 "/></g></g></g><g fill="#000000" fill-opacity="1"><g transform="translate(329.405979, 267.360753)"><g/></g></g><g fill="#000000" fill-opacity="1"><g transform="translate(345.838154, 267.360753)"><g><path d="M 6.265625 0 L 6.265625 -24.703125 L 1.375 -24.703125 L 1.375 -28.109375 L 6.265625 -28.109375 C 5.960938 -29.328125 5.8125 -30.488281 5.8125 -31.59375 C 5.8125 -33.40625 6.195312 -34.9375 6.96875 -36.1875 C 7.738281 -37.4375 8.8125 -38.363281 10.1875 -38.96875 C 11.5625 -39.582031 13.144531 -39.890625 14.9375 -39.890625 C 17.738281 -39.890625 19.890625 -39.289062 21.390625 -38.09375 L 19.78125 -35.15625 L 19.25 -35.0625 C 18.144531 -35.9375 16.707031 -36.375 14.9375 -36.375 C 13.289062 -36.375 12.046875 -35.945312 11.203125 -35.09375 C 10.367188 -34.25 9.953125 -33.050781 9.953125 -31.5 C 9.953125 -30.53125 10.101562 -29.398438 10.40625 -28.109375 L 19.34375 -28.109375 L 19.34375 -24.703125 L 10.40625 -24.703125 L 10.40625 0 Z M 6.265625 0 "/></g></g></g><g fill="#000000" fill-opacity="1"><g transform="translate(369.501261, 267.360753)"><g><path d="M 16.109375 0.53125 C 13.460938 0.53125 11.160156 -0.0234375 9.203125 -1.140625 C 7.242188 -2.265625 5.734375 -3.914062 4.671875 -6.09375 C 3.609375 -8.28125 3.078125 -10.925781 3.078125 -14.03125 C 3.078125 -17.132812 3.609375 -19.78125 4.671875 -21.96875 C 5.734375 -24.15625 7.242188 -25.804688 9.203125 -26.921875 C 11.160156 -28.046875 13.460938 -28.609375 16.109375 -28.609375 C 18.765625 -28.609375 21.070312 -28.046875 23.03125 -26.921875 C 24.988281 -25.804688 26.5 -24.15625 27.5625 -21.96875 C 28.625 -19.78125 29.15625 -17.132812 29.15625 -14.03125 C 29.15625 -10.925781 28.625 -8.28125 27.5625 -6.09375 C 26.5 -3.914062 24.988281 -2.265625 23.03125 -1.140625 C 21.070312 -0.0234375 18.765625 0.53125 16.109375 0.53125 Z M 16.109375 -3.1875 C 18.910156 -3.1875 21.050781 -4.066406 22.53125 -5.828125 C 24.019531 -7.597656 24.765625 -10.332031 24.765625 -14.03125 C 24.765625 -17.75 24.019531 -20.488281 22.53125 -22.25 C 21.050781 -24.019531 18.910156 -24.90625 16.109375 -24.90625 C 13.316406 -24.90625 11.171875 -24.015625 9.671875 -22.234375 C 8.179688 -20.460938 7.4375 -17.726562 7.4375 -14.03125 C 7.4375 -10.332031 8.179688 -7.597656 9.671875 -5.828125 C 11.171875 -4.066406 13.316406 -3.1875 16.109375 -3.1875 Z M 16.109375 -3.1875 "/></g></g></g><g fill="#000000" fill-opacity="1"><g transform="translate(405.385666, 267.360753)"><g><path d="M 4.890625 0 L 4.890625 -28.078125 L 8.828125 -28.078125 L 8.828125 -23.671875 L 9.375 -23.546875 C 10.675781 -26.742188 13.132812 -28.34375 16.75 -28.34375 C 18.664062 -28.34375 20.101562 -27.992188 21.0625 -27.296875 L 19.984375 -23.78125 L 19.46875 -23.671875 C 18.414062 -24.203125 17.265625 -24.46875 16.015625 -24.46875 C 13.773438 -24.46875 12.050781 -23.625 10.84375 -21.9375 C 9.632812 -20.257812 9.03125 -17.539062 9.03125 -13.78125 L 9.03125 0 Z M 4.890625 0 "/></g></g></g><g fill="#000000" fill-opacity="1"><g transform="translate(430.729201, 267.360753)"><g/></g></g><g fill="#000000" fill-opacity="1"><g transform="translate(447.161375, 267.360753)"><g><path d="M 12.8125 0.53125 C 11.039062 0.53125 9.40625 0.300781 7.90625 -0.15625 C 6.40625 -0.625 5.132812 -1.265625 4.09375 -2.078125 C 3.0625 -2.898438 2.332031 -3.820312 1.90625 -4.84375 L 4.359375 -7.390625 L 4.890625 -7.390625 C 5.804688 -5.992188 6.90625 -4.941406 8.1875 -4.234375 C 9.476562 -3.535156 11.019531 -3.1875 12.8125 -3.1875 C 14.875 -3.1875 16.441406 -3.585938 17.515625 -4.390625 C 18.597656 -5.191406 19.140625 -6.316406 19.140625 -7.765625 C 19.140625 -8.867188 18.8125 -9.78125 18.15625 -10.5 C 17.507812 -11.21875 16.457031 -11.757812 15 -12.125 L 10.265625 -13.296875 C 7.734375 -13.898438 5.882812 -14.863281 4.71875 -16.1875 C 3.5625 -17.507812 2.984375 -19.148438 2.984375 -21.109375 C 2.984375 -22.628906 3.375 -23.953125 4.15625 -25.078125 C 4.9375 -26.210938 6.054688 -27.082031 7.515625 -27.6875 C 8.984375 -28.300781 10.726562 -28.609375 12.75 -28.609375 C 15.332031 -28.609375 17.363281 -28.25 18.84375 -27.53125 C 20.332031 -26.8125 21.492188 -25.804688 22.328125 -24.515625 L 19.984375 -22.21875 L 19.46875 -22.21875 C 18.570312 -23.257812 17.59375 -24.007812 16.53125 -24.46875 C 15.46875 -24.925781 14.207031 -25.15625 12.75 -25.15625 C 10.90625 -25.15625 9.488281 -24.820312 8.5 -24.15625 C 7.519531 -23.5 7.03125 -22.539062 7.03125 -21.28125 C 7.03125 -20.144531 7.375 -19.226562 8.0625 -18.53125 C 8.757812 -17.832031 9.976562 -17.273438 11.71875 -16.859375 L 16.375 -15.734375 C 18.8125 -15.160156 20.570312 -14.203125 21.65625 -12.859375 C 22.75 -11.515625 23.296875 -9.832031 23.296875 -7.8125 C 23.296875 -6.164062 22.90625 -4.710938 22.125 -3.453125 C 21.34375 -2.203125 20.160156 -1.222656 18.578125 -0.515625 C 17.003906 0.179688 15.082031 0.53125 12.8125 0.53125 Z M 12.8125 0.53125 "/></g></g></g><g fill="#000000" fill-opacity="1"><g transform="translate(476.782365, 267.360753)"><g><path d="M 16.109375 0.53125 C 13.640625 0.53125 11.414062 -0.03125 9.4375 -1.15625 C 7.46875 -2.28125 5.914062 -3.941406 4.78125 -6.140625 C 3.644531 -8.347656 3.078125 -10.976562 3.078125 -14.03125 C 3.078125 -17.101562 3.644531 -19.738281 4.78125 -21.9375 C 5.914062 -24.132812 7.46875 -25.796875 9.4375 -26.921875 C 11.414062 -28.046875 13.640625 -28.609375 16.109375 -28.609375 C 19.085938 -28.609375 21.453125 -28.046875 23.203125 -26.921875 C 24.960938 -25.804688 26.234375 -24.316406 27.015625 -22.453125 L 24.1875 -20.421875 L 23.671875 -20.421875 C 22.910156 -21.960938 21.929688 -23.09375 20.734375 -23.8125 C 19.535156 -24.539062 17.992188 -24.90625 16.109375 -24.90625 C 14.378906 -24.90625 12.859375 -24.492188 11.546875 -23.671875 C 10.242188 -22.859375 9.234375 -21.632812 8.515625 -20 C 7.796875 -18.375 7.4375 -16.382812 7.4375 -14.03125 C 7.4375 -11.6875 7.800781 -9.703125 8.53125 -8.078125 C 9.257812 -6.460938 10.269531 -5.242188 11.5625 -4.421875 C 12.863281 -3.597656 14.378906 -3.1875 16.109375 -3.1875 C 18.066406 -3.1875 19.6875 -3.625 20.96875 -4.5 C 22.25 -5.382812 23.253906 -6.78125 23.984375 -8.6875 L 24.515625 -8.6875 L 27.234375 -7.078125 C 26.503906 -4.710938 25.203125 -2.851562 23.328125 -1.5 C 21.453125 -0.144531 19.046875 0.53125 16.109375 0.53125 Z M 16.109375 0.53125 "/></g></g></g><g fill="#000000" fill-opacity="1"><g transform="translate(509.382282, 267.360753)"><g><path d="M 4.890625 0 L 4.890625 -39.359375 L 9.03125 -39.359375 L 9.03125 -24.078125 L 9.578125 -23.984375 C 11.578125 -27.066406 14.46875 -28.609375 18.25 -28.609375 C 21.632812 -28.609375 24.082031 -27.75 25.59375 -26.03125 C 27.113281 -24.3125 27.875 -21.660156 27.875 -18.078125 L 27.875 0 L 23.734375 0 L 23.734375 -17.96875 C 23.734375 -19.664062 23.515625 -21.023438 23.078125 -22.046875 C 22.640625 -23.078125 21.96875 -23.828125 21.0625 -24.296875 C 20.15625 -24.765625 18.960938 -25 17.484375 -25 C 14.941406 -25 12.894531 -24.175781 11.34375 -22.53125 C 9.800781 -20.882812 9.03125 -18.175781 9.03125 -14.40625 L 9.03125 0 Z M 4.890625 0 "/></g></g></g><g fill="#000000" fill-opacity="1"><g transform="translate(545.368531, 267.360753)"><g><path d="M 16.109375 0.53125 C 13.460938 0.53125 11.160156 -0.0234375 9.203125 -1.140625 C 7.242188 -2.265625 5.734375 -3.914062 4.671875 -6.09375 C 3.609375 -8.28125 3.078125 -10.925781 3.078125 -14.03125 C 3.078125 -17.132812 3.609375 -19.78125 4.671875 -21.96875 C 5.734375 -24.15625 7.242188 -25.804688 9.203125 -26.921875 C 11.160156 -28.046875 13.460938 -28.609375 16.109375 -28.609375 C 18.765625 -28.609375 21.070312 -28.046875 23.03125 -26.921875 C 24.988281 -25.804688 26.5 -24.15625 27.5625 -21.96875 C 28.625 -19.78125 29.15625 -17.132812 29.15625 -14.03125 C 29.15625 -10.925781 28.625 -8.28125 27.5625 -6.09375 C 26.5 -3.914062 24.988281 -2.265625 23.03125 -1.140625 C 21.070312 -0.0234375 18.765625 0.53125 16.109375 0.53125 Z M 16.109375 -3.1875 C 18.910156 -3.1875 21.050781 -4.066406 22.53125 -5.828125 C 24.019531 -7.597656 24.765625 -10.332031 24.765625 -14.03125 C 24.765625 -17.75 24.019531 -20.488281 22.53125 -22.25 C 21.050781 -24.019531 18.910156 -24.90625 16.109375 -24.90625 C 13.316406 -24.90625 11.171875 -24.015625 9.671875 -22.234375 C 8.179688 -20.460938 7.4375 -17.726562 7.4375 -14.03125 C 7.4375 -10.332031 8.179688 -7.597656 9.671875 -5.828125 C 11.171875 -4.066406 13.316406 -3.1875 16.109375 -3.1875 Z M 16.109375 -3.1875 "/></g></g></g><g fill="#000000" fill-opacity="1"><g transform="translate(581.252935, 267.360753)"><g><path d="M 16.109375 0.53125 C 13.460938 0.53125 11.160156 -0.0234375 9.203125 -1.140625 C 7.242188 -2.265625 5.734375 -3.914062 4.671875 -6.09375 C 3.609375 -8.28125 3.078125 -10.925781 3.078125 -14.03125 C 3.078125 -17.132812 3.609375 -19.78125 4.671875 -21.96875 C 5.734375 -24.15625 7.242188 -25.804688 9.203125 -26.921875 C 11.160156 -28.046875 13.460938 -28.609375 16.109375 -28.609375 C 18.765625 -28.609375 21.070312 -28.046875 23.03125 -26.921875 C 24.988281 -25.804688 26.5 -24.15625 27.5625 -21.96875 C 28.625 -19.78125 29.15625 -17.132812 29.15625 -14.03125 C 29.15625 -10.925781 28.625 -8.28125 27.5625 -6.09375 C 26.5 -3.914062 24.988281 -2.265625 23.03125 -1.140625 C 21.070312 -0.0234375 18.765625 0.53125 16.109375 0.53125 Z M 16.109375 -3.1875 C 18.910156 -3.1875 21.050781 -4.066406 22.53125 -5.828125 C 24.019531 -7.597656 24.765625 -10.332031 24.765625 -14.03125 C 24.765625 -17.75 24.019531 -20.488281 22.53125 -22.25 C 21.050781 -24.019531 18.910156 -24.90625 16.109375 -24.90625 C 13.316406 -24.90625 11.171875 -24.015625 9.671875 -22.234375 C 8.179688 -20.460938 7.4375 -17.726562 7.4375 -14.03125 C 7.4375 -10.332031 8.179688 -7.597656 9.671875 -5.828125 C 11.171875 -4.066406 13.316406 -3.1875 16.109375 -3.1875 Z M 16.109375 -3.1875 "/></g></g></g><g fill="#000000" fill-opacity="1"><g transform="translate(617.13734, 267.360753)"><g><path d="M 11.171875 0.53125 C 9.191406 0.53125 7.628906 -0.03125 6.484375 -1.15625 C 5.347656 -2.28125 4.78125 -3.96875 4.78125 -6.21875 L 4.78125 -39.359375 L 8.9375 -39.359375 L 8.9375 -6.484375 C 8.9375 -5.316406 9.160156 -4.472656 9.609375 -3.953125 C 10.054688 -3.441406 10.757812 -3.1875 11.71875 -3.1875 C 12.289062 -3.1875 12.875 -3.28125 13.46875 -3.46875 L 13.828125 -3.359375 L 14.3125 -0.109375 C 14 0.0976562 13.554688 0.253906 12.984375 0.359375 C 12.421875 0.472656 11.816406 0.53125 11.171875 0.53125 Z M 11.171875 0.53125 "/></g></g></g><g fill="#000000" fill-opacity="1"><g transform="translate(636.064722, 267.360753)"><g><path d="M 12.8125 0.53125 C 11.039062 0.53125 9.40625 0.300781 7.90625 -0.15625 C 6.40625 -0.625 5.132812 -1.265625 4.09375 -2.078125 C 3.0625 -2.898438 2.332031 -3.820312 1.90625 -4.84375 L 4.359375 -7.390625 L 4.890625 -7.390625 C 5.804688 -5.992188 6.90625 -4.941406 8.1875 -4.234375 C 9.476562 -3.535156 11.019531 -3.1875 12.8125 -3.1875 C 14.875 -3.1875 16.441406 -3.585938 17.515625 -4.390625 C 18.597656 -5.191406 19.140625 -6.316406 19.140625 -7.765625 C 19.140625 -8.867188 18.8125 -9.78125 18.15625 -10.5 C 17.507812 -11.21875 16.457031 -11.757812 15 -12.125 L 10.265625 -13.296875 C 7.734375 -13.898438 5.882812 -14.863281 4.71875 -16.1875 C 3.5625 -17.507812 2.984375 -19.148438 2.984375 -21.109375 C 2.984375 -22.628906 3.375 -23.953125 4.15625 -25.078125 C 4.9375 -26.210938 6.054688 -27.082031 7.515625 -27.6875 C 8.984375 -28.300781 10.726562 -28.609375 12.75 -28.609375 C 15.332031 -28.609375 17.363281 -28.25 18.84375 -27.53125 C 20.332031 -26.8125 21.492188 -25.804688 22.328125 -24.515625 L 19.984375 -22.21875 L 19.46875 -22.21875 C 18.570312 -23.257812 17.59375 -24.007812 16.53125 -24.46875 C 15.46875 -24.925781 14.207031 -25.15625 12.75 -25.15625 C 10.90625 -25.15625 9.488281 -24.820312 8.5 -24.15625 C 7.519531 -23.5 7.03125 -22.539062 7.03125 -21.28125 C 7.03125 -20.144531 7.375 -19.226562 8.0625 -18.53125 C 8.757812 -17.832031 9.976562 -17.273438 11.71875 -16.859375 L 16.375 -15.734375 C 18.8125 -15.160156 20.570312 -14.203125 21.65625 -12.859375 C 22.75 -11.515625 23.296875 -9.832031 23.296875 -7.8125 C 23.296875 -6.164062 22.90625 -4.710938 22.125 -3.453125 C 21.34375 -2.203125 20.160156 -1.222656 18.578125 -0.515625 C 17.003906 0.179688 15.082031 0.53125 12.8125 0.53125 Z M 12.8125 0.53125 "/></g></g></g><g fill="#000000" fill-opacity="1"><g transform="translate(736.552636, 267.360753)"><g><path d="M 12.1875 0 L 4.84375 0 L 4.84375 -37.21875 L 12.1875 -37.21875 Z M 12.1875 0 "/></g></g></g><g fill="#000000" fill-opacity="1"><g transform="translate(753.611529, 267.360753)"><g><path d="M 20.296875 0.53125 C 16.878906 0.53125 13.867188 -0.160156 11.265625 -1.546875 C 8.660156 -2.941406 6.617188 -5.066406 5.140625 -7.921875 C 3.660156 -10.785156 2.921875 -14.347656 2.921875 -18.609375 C 2.921875 -22.867188 3.660156 -26.425781 5.140625 -29.28125 C 6.617188 -32.144531 8.660156 -34.269531 11.265625 -35.65625 C 13.867188 -37.050781 16.878906 -37.75 20.296875 -37.75 C 23.703125 -37.75 26.703125 -37.054688 29.296875 -35.671875 C 31.898438 -34.296875 33.9375 -32.171875 35.40625 -29.296875 C 36.875 -26.429688 37.609375 -22.867188 37.609375 -18.609375 C 37.609375 -14.347656 36.875 -10.78125 35.40625 -7.90625 C 33.9375 -5.039062 31.898438 -2.914062 29.296875 -1.53125 C 26.703125 -0.15625 23.703125 0.53125 20.296875 0.53125 Z M 20.296875 -5.859375 C 23.453125 -5.859375 25.859375 -6.867188 27.515625 -8.890625 C 29.179688 -10.921875 30.015625 -14.160156 30.015625 -18.609375 C 30.015625 -23.054688 29.179688 -26.296875 27.515625 -28.328125 C 25.859375 -30.367188 23.453125 -31.390625 20.296875 -31.390625 C 17.117188 -31.390625 14.691406 -30.367188 13.015625 -28.328125 C 11.347656 -26.296875 10.515625 -23.054688 10.515625 -18.609375 C 10.515625 -14.160156 11.347656 -10.921875 13.015625 -8.890625 C 14.691406 -6.867188 17.117188 -5.859375 20.296875 -5.859375 Z M 20.296875 -5.859375 "/></g></g></g></svg>